<svg width="35" height="36" viewBox="0 0 35 36" fill="none" xmlns="http://www.w3.org/2000/svg">
<path d="M8.26811 21.8395H6.97371C6.28711 21.8395 5.62863 21.5668 5.14314 21.0813C4.65763 20.5957 4.38489 19.9373 4.38489 19.2507V7.60103C4.38489 6.91443 4.65763 6.25595 5.14314 5.77046C5.62863 5.28495 6.28711 5.01221 6.97371 5.01221H18.6234C19.31 5.01221 19.9684 5.28495 20.454 5.77046C20.9395 6.25595 21.2122 6.91443 21.2122 7.60103V8.89543M16.0346 14.0731H27.6843C29.114 14.0731 30.2731 15.2321 30.2731 16.6619V28.3116C30.2731 29.7413 29.114 30.9004 27.6843 30.9004H16.0346C14.6048 30.9004 13.4458 29.7413 13.4458 28.3116V16.6619C13.4458 15.2321 14.6048 14.0731 16.0346 14.0731Z" stroke="black" stroke-width="3.13093" stroke-linecap="round" stroke-linejoin="round"/>
</svg>
